%FSLAX46Y46*%
%MOMM*%
%TF.FileFunction,Legend,Top*%
%ADD10C,0.1500*%
%LPD*%
D10*
X4650000Y14050000D02*
X5350000Y14050000D01*
X4650000Y15950000D02*
X5350000Y15950000D01*
X4191667Y16350000D02*
X4191667Y17350000D01*
X4691667Y17350000D01*
X4858333Y17183333D01*
X4858333Y17016667D01*
X4691667Y16850000D01*
X4191667Y16850000D01*
X4525000Y16850000D02*
X4858333Y16350000D01*
X5141667Y17350000D02*
X5808333Y17350000D01*
X5475000Y17350000D02*
X5475000Y16350000D01*
X8050000Y9650000D02*
X8050000Y10350000D01*
X9950000Y9650000D02*
X9950000Y10350000D01*
X10250000Y9500000D02*
X10250000Y10500000D01*
X10750000Y10500000D01*
X10916667Y10333333D01*
X10916667Y10166667D01*
X10750000Y10000000D01*
X10250000Y10000000D01*
X10583333Y10000000D02*
X10916667Y9500000D01*
X11366667Y9500000D02*
X11200000Y9666667D01*
X11200000Y10333333D01*
X11366667Y10500000D01*
X11700000Y10500000D01*
X11866667Y10333333D01*
X11866667Y9666667D01*
X11700000Y9500000D01*
X11366667Y9500000D01*
X14050000Y9650000D02*
X14050000Y10350000D01*
X15950000Y9650000D02*
X15950000Y10350000D01*
X16250000Y9500000D02*
X16250000Y10500000D01*
X16750000Y10500000D01*
X16916667Y10333333D01*
X16916667Y10166667D01*
X16750000Y10000000D01*
X16250000Y10000000D01*
X16583333Y10000000D02*
X16916667Y9500000D01*
X17366667Y10333333D02*
X17533333Y10500000D01*
X17533333Y9500000D01*
X17366667Y9500000D02*
X17700000Y9500000D01*
X20050000Y9650000D02*
X20050000Y10350000D01*
X21950000Y9650000D02*
X21950000Y10350000D01*
X22250000Y9500000D02*
X22250000Y10500000D01*
X22750000Y10500000D01*
X22916667Y10333333D01*
X22916667Y10166667D01*
X22750000Y10000000D01*
X22250000Y10000000D01*
X22583333Y10000000D02*
X22916667Y9500000D01*
X23200000Y10333333D02*
X23366667Y10500000D01*
X23700000Y10500000D01*
X23866667Y10333333D01*
X23866667Y10166667D01*
X23200000Y9500000D01*
X23866667Y9500000D01*
X26050000Y9650000D02*
X26050000Y10350000D01*
X27950000Y9650000D02*
X27950000Y10350000D01*
X28250000Y9500000D02*
X28250000Y10500000D01*
X28750000Y10500000D01*
X28916667Y10333333D01*
X28916667Y10166667D01*
X28750000Y10000000D01*
X28250000Y10000000D01*
X28583333Y10000000D02*
X28916667Y9500000D01*
X29200000Y10500000D02*
X29866667Y10500000D01*
X29533333Y10083333D01*
X29866667Y9916667D01*
X29866667Y9666667D01*
X29700000Y9500000D01*
X29200000Y9500000D01*
X11650000Y14050000D02*
X12350000Y14050000D01*
X11650000Y15950000D02*
X12350000Y15950000D01*
X10716667Y16350000D02*
X10716667Y17350000D01*
X11216667Y17350000D01*
X11383333Y17183333D01*
X11383333Y17016667D01*
X11216667Y16850000D01*
X10716667Y16850000D01*
X11050000Y16850000D02*
X11383333Y16350000D01*
X11666667Y17350000D02*
X11666667Y16350000D01*
X12333333Y16350000D01*
X12783333Y16350000D02*
X12616667Y16516667D01*
X12616667Y17183333D01*
X12783333Y17350000D01*
X13116667Y17350000D01*
X13283333Y17183333D01*
X13283333Y16516667D01*
X13116667Y16350000D01*
X12783333Y16350000D01*
X17650000Y14050000D02*
X18350000Y14050000D01*
X17650000Y15950000D02*
X18350000Y15950000D01*
X16716667Y16350000D02*
X16716667Y17350000D01*
X17216667Y17350000D01*
X17383333Y17183333D01*
X17383333Y17016667D01*
X17216667Y16850000D01*
X16716667Y16850000D01*
X17050000Y16850000D02*
X17383333Y16350000D01*
X17666667Y17350000D02*
X17666667Y16350000D01*
X18333333Y16350000D01*
X18783333Y17183333D02*
X18950000Y17350000D01*
X18950000Y16350000D01*
X18783333Y16350000D02*
X19116667Y16350000D01*
X23650000Y14050000D02*
X24350000Y14050000D01*
X23650000Y15950000D02*
X24350000Y15950000D01*
X22716667Y16350000D02*
X22716667Y17350000D01*
X23216667Y17350000D01*
X23383333Y17183333D01*
X23383333Y17016667D01*
X23216667Y16850000D01*
X22716667Y16850000D01*
X23050000Y16850000D02*
X23383333Y16350000D01*
X23666667Y17350000D02*
X23666667Y16350000D01*
X24333333Y16350000D01*
X24616667Y17183333D02*
X24783333Y17350000D01*
X25116667Y17350000D01*
X25283333Y17183333D01*
X25283333Y17016667D01*
X24616667Y16350000D01*
X25283333Y16350000D01*
X9790000Y1400000D02*
X20210000Y1400000D01*
X20210000Y4200000D01*
X9790000Y4200000D01*
X9790000Y1400000D01*
X7556667Y3300000D02*
X8056667Y3300000D01*
X7890000Y3300000D02*
X7890000Y2466667D01*
X7723333Y2300000D01*
X7556667Y2300000D01*
X7390000Y2466667D01*
X8506667Y3133333D02*
X8673333Y3300000D01*
X8673333Y2300000D01*
X8506667Y2300000D02*
X8840000Y2300000D01*
X9640000Y4550000D02*
X9640000Y5250000D01*
X9990000Y5250000D01*
X10106667Y5133333D01*
X10106667Y5016667D01*
X9990000Y4900000D01*
X9640000Y4900000D01*
X9990000Y4900000D02*
X10106667Y4783333D01*
X10106667Y4666667D01*
X9990000Y4550000D01*
X9640000Y4550000D01*
X10421667Y4550000D02*
X10305000Y4666667D01*
X10305000Y5133333D01*
X10421667Y5250000D01*
X10655000Y5250000D01*
X10771667Y5133333D01*
X10771667Y4666667D01*
X10655000Y4550000D01*
X10421667Y4550000D01*
X12180000Y4550000D02*
X12180000Y5250000D01*
X12530000Y5250000D01*
X12646667Y5133333D01*
X12646667Y5016667D01*
X12530000Y4900000D01*
X12180000Y4900000D01*
X12530000Y4900000D02*
X12646667Y4783333D01*
X12646667Y4666667D01*
X12530000Y4550000D01*
X12180000Y4550000D01*
X12961667Y5133333D02*
X13078333Y5250000D01*
X13078333Y4550000D01*
X12961667Y4550000D02*
X13195000Y4550000D01*
X14720000Y4550000D02*
X14720000Y5250000D01*
X15070000Y5250000D01*
X15186667Y5133333D01*
X15186667Y5016667D01*
X15070000Y4900000D01*
X14720000Y4900000D01*
X15070000Y4900000D02*
X15186667Y4783333D01*
X15186667Y4666667D01*
X15070000Y4550000D01*
X14720000Y4550000D01*
X15385000Y5133333D02*
X15501667Y5250000D01*
X15735000Y5250000D01*
X15851667Y5133333D01*
X15851667Y5016667D01*
X15385000Y4550000D01*
X15851667Y4550000D01*
X17260000Y4550000D02*
X17260000Y5250000D01*
X17610000Y5250000D01*
X17726667Y5133333D01*
X17726667Y5016667D01*
X17610000Y4900000D01*
X17260000Y4900000D01*
X17610000Y4900000D02*
X17726667Y4783333D01*
X17726667Y4666667D01*
X17610000Y4550000D01*
X17260000Y4550000D01*
X17925000Y5250000D02*
X18391667Y5250000D01*
X18158333Y4958333D01*
X18391667Y4841667D01*
X18391667Y4666667D01*
X18275000Y4550000D01*
X17925000Y4550000D01*
X29100000Y12330000D02*
X31900000Y12330000D01*
X31900000Y17670000D01*
X29100000Y17670000D01*
X29100000Y12330000D01*
X29616667Y19200000D02*
X30116667Y19200000D01*
X29950000Y19200000D02*
X29950000Y18366667D01*
X29783333Y18200000D01*
X29616667Y18200000D01*
X29450000Y18366667D01*
X30400000Y19033333D02*
X30566667Y19200000D01*
X30900000Y19200000D01*
X31066667Y19033333D01*
X31066667Y18866667D01*
X30400000Y18200000D01*
X31066667Y18200000D01*
X24466667Y3300000D02*
X24466667Y4300000D01*
X23966667Y3633333D01*
X24633333Y3633333D01*
X25083333Y3800000D02*
X25416667Y3800000D01*
X25866667Y3300000D02*
X25866667Y4300000D01*
X26366667Y4300000D01*
X26533333Y4133333D01*
X26533333Y3966667D01*
X26366667Y3800000D01*
X25866667Y3800000D01*
X26366667Y3800000D02*
X26533333Y3633333D01*
X26533333Y3466667D01*
X26366667Y3300000D01*
X25866667Y3300000D01*
X26983333Y4300000D02*
X27316667Y4300000D01*
X27150000Y4300000D02*
X27150000Y3300000D01*
X26983333Y3300000D02*
X27316667Y3300000D01*
X27766667Y4300000D02*
X28433333Y4300000D01*
X28100000Y4300000D02*
X28100000Y3300000D01*
X22541667Y1400000D02*
X22541667Y2400000D01*
X23041667Y2400000D01*
X23208333Y2233333D01*
X23208333Y2066667D01*
X23041667Y1900000D01*
X22541667Y1900000D01*
X22875000Y1900000D02*
X23208333Y1400000D01*
X23658333Y1900000D02*
X23991667Y1900000D01*
X24441667Y2233333D02*
X24608333Y2400000D01*
X24941667Y2400000D01*
X25108333Y2233333D01*
X25108333Y2066667D01*
X24441667Y1400000D01*
X25108333Y1400000D01*
X25391667Y1400000D02*
X25391667Y2400000D01*
X25891667Y2400000D01*
X26058333Y2233333D01*
X26058333Y2066667D01*
X25891667Y1900000D01*
X25391667Y1900000D01*
X25725000Y1900000D02*
X26058333Y1400000D01*
X27291667Y1400000D02*
X27291667Y2400000D01*
X27791667Y2400000D01*
X27958333Y2233333D01*
X27958333Y1566667D01*
X27791667Y1400000D01*
X27291667Y1400000D01*
X28241667Y1400000D02*
X28241667Y2066667D01*
X28575000Y2400000D01*
X28908333Y2066667D01*
X28908333Y1400000D01*
X28241667Y1900000D02*
X28908333Y1900000D01*
X29858333Y2400000D02*
X29358333Y2400000D01*
X29191667Y2233333D01*
X29191667Y1566667D01*
X29358333Y1400000D01*
X29858333Y1400000D01*
M02*
