G04*
G04 #@! TF.GenerationSoftware,Altium Limited,Altium Designer Develop,26.10.1 (6)*
G04*
G04 Layer_Physical_Order=1*
G04 Layer_Color=255*
G04 Board_Origin=0|0*
%FSLAX44Y44*%
%MOMM*%
G71*
G04*
G04 #@! TF.SameCoordinates,F4C42F38-000B-4B33-B94C-4EB5F8B073F3*
G04*
G04*
G04 #@! TF.FilePolarity,Positive*
G04*
G01*
G75*
%ADD10C,0.2500*%
%ADD14R,0.7000X1.3000*%
%ADD24R,1.4500X1.2000*%
G04:AMPARAMS|DCode=25|XSize=1mm|YSize=2.05mm|CornerRadius=0.05mm|HoleSize=0mm|Usage=FLASHONLY|Rotation=0.000|XOffset=0mm|YOffset=0mm|HoleType=Round|Shape=RoundedRectangle|*
%AMROUNDEDRECTD25*
21,1,1.0000,1.9500,0,0,0.0*
21,1,0.9000,2.0500,0,0,0.0*
1,1,0.1000,0.4500,-0.9750*
1,1,0.1000,-0.4500,-0.9750*
1,1,0.1000,-0.4500,0.9750*
1,1,0.1000,0.4500,0.9750*
%
%ADD25ROUNDEDRECTD25*%
%ADD26R,1.2000X1.4500*%
G04:AMPARAMS|DCode=27|XSize=3.25mm|YSize=2.05mm|CornerRadius=0.0513mm|HoleSize=0mm|Usage=FLASHONLY|Rotation=0.000|XOffset=0mm|YOffset=0mm|HoleType=Round|Shape=RoundedRectangle|*
%AMROUNDEDRECTD27*
21,1,3.2500,1.9475,0,0,0.0*
21,1,3.1475,2.0500,0,0,0.0*
1,1,0.1025,1.5738,-0.9738*
1,1,0.1025,-1.5738,-0.9738*
1,1,0.1025,-1.5738,0.9738*
1,1,0.1025,1.5738,0.9738*
%
%ADD27ROUNDEDRECTD27*%
%ADD28R,1.2500X1.5500*%
%ADD29R,1.2000X1.2000*%
%ADD30C,0.5000*%
%ADD31C,1.6000*%
G04:AMPARAMS|DCode=32|XSize=1.6mm|YSize=1.6mm|CornerRadius=0.4mm|HoleSize=0mm|Usage=FLASHONLY|Rotation=0.000|XOffset=0mm|YOffset=0mm|HoleType=Round|Shape=RoundedRectangle|*
%AMROUNDEDRECTD32*
21,1,1.6000,0.8000,0,0,0.0*
21,1,0.8000,1.6000,0,0,0.0*
1,1,0.8000,0.4000,-0.4000*
1,1,0.8000,-0.4000,-0.4000*
1,1,0.8000,-0.4000,0.4000*
1,1,0.8000,0.4000,0.4000*
%
%ADD32ROUNDEDRECTD32*%
%ADD33C,1.2700*%
G36*
X172720Y2540D02*
X60161D01*
X59503Y7540D01*
X61203Y7996D01*
X63597Y9378D01*
X65552Y11333D01*
X66934Y13727D01*
X67650Y16398D01*
Y16530D01*
X57150D01*
Y17780D01*
X55900D01*
Y28280D01*
X55768D01*
X53097Y27564D01*
X50703Y26182D01*
X48748Y24227D01*
X47757Y22511D01*
X45535Y22374D01*
X42619Y23235D01*
X42570Y23607D01*
X41865Y25310D01*
X40742Y26772D01*
X39280Y27894D01*
X37577Y28600D01*
X35750Y28840D01*
X35099D01*
X33751Y31766D01*
X34940Y33488D01*
Y44450D01*
Y54700D01*
X28940D01*
Y55200D01*
X26935D01*
X25223Y59891D01*
X25860Y62269D01*
Y64731D01*
X25223Y67109D01*
X23992Y69241D01*
X22251Y70982D01*
X22118Y71059D01*
Y77020D01*
X25510D01*
Y90661D01*
X26691Y95053D01*
X30452Y95160D01*
X42427D01*
X44720Y95160D01*
X49513Y95660D01*
X54470D01*
Y105410D01*
Y115160D01*
X49513D01*
X44720Y115660D01*
X42427Y115660D01*
X26720D01*
Y115660D01*
X25510Y116020D01*
X25510Y116020D01*
X21869Y116020D01*
X7620D01*
Y214277D01*
X12620Y215617D01*
X12838Y215239D01*
X14579Y213498D01*
X16711Y212267D01*
X19089Y211630D01*
X21551D01*
X23929Y212267D01*
X26061Y213498D01*
X26161Y213599D01*
X31161Y211528D01*
Y201070D01*
X31433Y199704D01*
X32207Y198547D01*
X33364Y197773D01*
X34730Y197501D01*
X43730D01*
X45096Y197773D01*
X46253Y198547D01*
X47027Y199704D01*
X47299Y201070D01*
Y220570D01*
X47027Y221936D01*
X46253Y223093D01*
X45950Y223296D01*
X45210Y227990D01*
X45210D01*
Y239059D01*
X50155Y244005D01*
X51371Y245824D01*
X51798Y247970D01*
Y248425D01*
X55702Y251890D01*
X58598D01*
X61396Y252640D01*
X63904Y254088D01*
X65952Y256136D01*
X67400Y258644D01*
X68150Y261442D01*
Y264338D01*
X67400Y267136D01*
X65952Y269644D01*
X63904Y271692D01*
X63613Y271860D01*
X64953Y276860D01*
X72467D01*
X77380Y276650D01*
Y261650D01*
X77380Y258650D01*
X77380Y253650D01*
Y238650D01*
X97880D01*
Y238650D01*
X99550Y239635D01*
X104550Y236780D01*
Y235180D01*
X104550D01*
X104050Y232680D01*
X103245Y228013D01*
X101182D01*
X99523Y227683D01*
X98118Y226744D01*
X95027Y223653D01*
X91415D01*
X91096Y223867D01*
X89730Y224139D01*
X80730D01*
X79364Y223867D01*
X78207Y223093D01*
X77433Y221936D01*
X77161Y220570D01*
Y201070D01*
X77433Y199704D01*
X78207Y198547D01*
X79364Y197773D01*
X80730Y197501D01*
X89730D01*
X91096Y197773D01*
X92253Y198547D01*
X93027Y199704D01*
X93299Y201070D01*
Y214987D01*
X96822D01*
X98480Y215317D01*
X99050Y215697D01*
X104050Y214680D01*
Y214680D01*
X124550D01*
Y226552D01*
X128864Y230866D01*
X129803Y232272D01*
X130133Y233930D01*
Y251440D01*
X129803Y253099D01*
X128864Y254505D01*
X126374Y256994D01*
X124969Y257933D01*
X123310Y258263D01*
X115997D01*
X114715Y259901D01*
X113489Y263263D01*
X114123Y264361D01*
X114760Y266739D01*
Y269201D01*
X114123Y271579D01*
X113961Y271860D01*
X116228Y276554D01*
X116587Y276860D01*
X172720D01*
Y2540D01*
D02*
G37*
%LPC*%
G36*
X66730Y223629D02*
X63480D01*
Y212070D01*
X69789D01*
Y220570D01*
X69556Y221740D01*
X68893Y222733D01*
X67901Y223396D01*
X66730Y223629D01*
D02*
G37*
G36*
X60980D02*
X57730D01*
X56560Y223396D01*
X55567Y222733D01*
X54904Y221740D01*
X54671Y220570D01*
Y212070D01*
X60980D01*
Y223629D01*
D02*
G37*
G36*
X69789Y209570D02*
X63480D01*
Y198011D01*
X66730D01*
X67901Y198244D01*
X68893Y198907D01*
X69556Y199900D01*
X69789Y201070D01*
Y209570D01*
D02*
G37*
G36*
X60980D02*
X54671D01*
Y201070D01*
X54904Y199900D01*
X55567Y198907D01*
X56560Y198244D01*
X57730Y198011D01*
X60980D01*
Y209570D01*
D02*
G37*
G36*
X77968Y160129D02*
X63480D01*
Y148570D01*
X81039D01*
Y157058D01*
X80805Y158233D01*
X80139Y159229D01*
X79143Y159895D01*
X77968Y160129D01*
D02*
G37*
G36*
X60980D02*
X46493D01*
X45317Y159895D01*
X44321Y159229D01*
X43655Y158233D01*
X43421Y157058D01*
Y148570D01*
X60980D01*
Y160129D01*
D02*
G37*
G36*
X81039Y146070D02*
X63480D01*
Y134511D01*
X77968D01*
X79143Y134745D01*
X80139Y135411D01*
X80805Y136407D01*
X81039Y137583D01*
Y146070D01*
D02*
G37*
G36*
X60980D02*
X43421D01*
Y137583D01*
X43655Y136407D01*
X44321Y135411D01*
X45317Y134745D01*
X46493Y134511D01*
X60980D01*
Y146070D01*
D02*
G37*
G36*
X56970Y115160D02*
Y106660D01*
X64220D01*
Y115160D01*
X56970D01*
D02*
G37*
G36*
X64220Y104160D02*
X56970D01*
Y95660D01*
X64220D01*
Y104160D01*
D02*
G37*
G36*
X44940Y54700D02*
X37440D01*
Y45700D01*
X44940D01*
Y54700D01*
D02*
G37*
G36*
Y43200D02*
X37440D01*
Y34200D01*
X44940D01*
Y43200D01*
D02*
G37*
G36*
X58532Y28280D02*
X58400D01*
Y19030D01*
X67650D01*
Y19162D01*
X66934Y21833D01*
X65552Y24227D01*
X63597Y26182D01*
X61203Y27564D01*
X58532Y28280D01*
D02*
G37*
%LPD*%
D10*
X114300Y223680D02*
X115550D01*
X125800Y233930D02*
Y251440D01*
X101182Y223680D02*
X114300D01*
X123310Y253930D02*
X125800Y251440D01*
X99010Y247650D02*
X105290Y253930D01*
X87630Y247650D02*
X99010D01*
X115550Y223680D02*
X125800Y233930D01*
X96822Y219320D02*
X101182Y223680D01*
X88980Y219320D02*
X96822D01*
X105290Y253930D02*
X123310D01*
X85230Y215570D02*
X88980Y219320D01*
X85230Y210820D02*
Y215570D01*
X34110Y107020D02*
X35720Y105410D01*
X16510Y107020D02*
X34110D01*
D14*
X19710Y237490D02*
D03*
X38710D02*
D03*
D24*
X114300Y243680D02*
D03*
Y223680D02*
D03*
X87630Y247650D02*
D03*
Y267650D02*
D03*
D25*
X62230Y210820D02*
D03*
X85230D02*
D03*
X39230D02*
D03*
D26*
X55720Y105410D02*
D03*
X35720D02*
D03*
D27*
X62230Y147320D02*
D03*
D28*
X36190Y44450D02*
D03*
X19690D02*
D03*
D29*
X16510Y107020D02*
D03*
Y86020D02*
D03*
D30*
X55720Y105410D02*
Y140810D01*
X36190Y84630D02*
X55720Y104160D01*
X98745Y229375D02*
X113050Y243680D01*
X114300D01*
X75535Y229375D02*
X98745D01*
X62230Y216070D02*
X75535Y229375D01*
X62230Y210820D02*
Y216070D01*
Y147320D02*
Y210820D01*
X55720Y104160D02*
Y105410D01*
X36190Y44450D02*
Y84630D01*
X55045Y19885D02*
Y24095D01*
Y19885D02*
X57150Y17780D01*
X36190Y42950D02*
X55045Y24095D01*
X46190Y247970D02*
Y251930D01*
X57150Y262890D01*
X38710Y240490D02*
X46190Y247970D01*
X38710Y237490D02*
Y240490D01*
Y237490D02*
X38970Y237230D01*
Y211080D02*
Y237230D01*
Y211080D02*
X39230Y210820D01*
X105250Y267810D02*
X105410Y267970D01*
X87790Y267810D02*
X105250D01*
X87630Y267650D02*
X87790Y267810D01*
X20015Y221285D02*
X20320Y220980D01*
X19710Y250850D02*
X31750Y262890D01*
X19710Y237490D02*
X20015Y237185D01*
X19710Y237490D02*
Y250850D01*
X20015Y221285D02*
Y237185D01*
X16510Y63500D02*
Y86020D01*
Y61416D02*
Y63500D01*
X19690Y29840D02*
X31750Y17780D01*
X19690Y44450D02*
Y58236D01*
X16510Y61416D02*
X19690Y58236D01*
Y29840D02*
Y44450D01*
D31*
X57150Y17780D02*
D03*
Y262890D02*
D03*
D32*
X31750D02*
D03*
Y17780D02*
D03*
D33*
X105410Y267970D02*
D03*
X20320Y220980D02*
D03*
X16510Y63500D02*
D03*
M02*
