G04*
G04 #@! TF.GenerationSoftware,Altium Limited,Altium Designer Develop,26.10.1 (6)*
G04*
G04 Layer_Physical_Order=2*
G04 Layer_Color=16711680*
G04 Board_Origin=0|0*
%FSLAX44Y44*%
%MOMM*%
G71*
G04*
G04 #@! TF.SameCoordinates,F4C42F38-000B-4B33-B94C-4EB5F8B073F3*
G04*
G04*
G04 #@! TF.FilePolarity,Positive*
G04*
G01*
G75*
%ADD31C,1.6000*%
G04:AMPARAMS|DCode=32|XSize=1.6mm|YSize=1.6mm|CornerRadius=0.4mm|HoleSize=0mm|Usage=FLASHONLY|Rotation=0.000|XOffset=0mm|YOffset=0mm|HoleType=Round|Shape=RoundedRectangle|*
%AMROUNDEDRECTD32*
21,1,1.6000,0.8000,0,0,0.0*
21,1,0.8000,1.6000,0,0,0.0*
1,1,0.8000,0.4000,-0.4000*
1,1,0.8000,-0.4000,-0.4000*
1,1,0.8000,-0.4000,0.4000*
1,1,0.8000,0.4000,0.4000*
%
%ADD32ROUNDEDRECTD32*%
%ADD33C,1.2700*%
G36*
X173000Y3000D02*
X63081D01*
X62310Y5073D01*
X62210Y8000D01*
X63904Y8978D01*
X65952Y11026D01*
X67400Y13534D01*
X68150Y16332D01*
Y19228D01*
X67400Y22026D01*
X65952Y24534D01*
X63904Y26582D01*
X61396Y28030D01*
X58598Y28780D01*
X55702D01*
X52904Y28030D01*
X50396Y26582D01*
X48348Y24534D01*
X47239Y22614D01*
X45394Y22443D01*
X42098Y23357D01*
X42083Y23477D01*
X41428Y25058D01*
X40386Y26416D01*
X39028Y27458D01*
X37447Y28113D01*
X35750Y28336D01*
X33000D01*
Y17780D01*
X31750D01*
Y16530D01*
X21194D01*
Y13780D01*
X21417Y12083D01*
X22072Y10502D01*
X23114Y9144D01*
X24472Y8102D01*
X24719Y8000D01*
X23724Y3000D01*
X8000D01*
Y52692D01*
X8204Y52939D01*
X13000Y55307D01*
X13094Y55253D01*
X15260Y54673D01*
Y63500D01*
Y72327D01*
X13094Y71747D01*
X13000Y71693D01*
X8204Y74061D01*
X8000Y74308D01*
Y214619D01*
X13000Y215959D01*
X13238Y215546D01*
X14886Y213898D01*
X16904Y212733D01*
X19070Y212153D01*
Y220980D01*
Y229807D01*
X16904Y229227D01*
X14886Y228062D01*
X13238Y226414D01*
X13000Y226001D01*
X8000Y227341D01*
Y277000D01*
X22371D01*
X23415Y274798D01*
X23732Y272000D01*
X23114Y271526D01*
X22072Y270168D01*
X21417Y268587D01*
X21194Y266890D01*
Y264140D01*
X31750D01*
Y262890D01*
X33000D01*
Y252334D01*
X35750D01*
X37447Y252557D01*
X39028Y253212D01*
X40386Y254254D01*
X41428Y255612D01*
X42083Y257193D01*
X42098Y257313D01*
X45394Y258227D01*
X47239Y258056D01*
X48348Y256136D01*
X50396Y254088D01*
X52904Y252640D01*
X55702Y251890D01*
X58598D01*
X61396Y252640D01*
X63904Y254088D01*
X65952Y256136D01*
X67400Y258644D01*
X68150Y261442D01*
Y264338D01*
X67400Y267136D01*
X65952Y269644D01*
X63904Y271692D01*
X63371Y272000D01*
X64711Y277000D01*
X94853D01*
X95864Y275954D01*
X97518Y272000D01*
X97163Y271386D01*
X96583Y269220D01*
X114237D01*
X113657Y271386D01*
X113302Y272000D01*
X114956Y275954D01*
X115967Y277000D01*
X173000D01*
Y3000D01*
D02*
G37*
%LPC*%
G36*
X114237Y266720D02*
X106660D01*
Y259143D01*
X108826Y259723D01*
X110844Y260888D01*
X112492Y262536D01*
X113657Y264554D01*
X114237Y266720D01*
D02*
G37*
G36*
X104160D02*
X96583D01*
X97163Y264554D01*
X98328Y262536D01*
X99976Y260888D01*
X101994Y259723D01*
X104160Y259143D01*
Y266720D01*
D02*
G37*
G36*
X30500Y261640D02*
X21194D01*
Y258890D01*
X21417Y257193D01*
X22072Y255612D01*
X23114Y254254D01*
X24472Y253212D01*
X26053Y252557D01*
X27750Y252334D01*
X30500D01*
Y261640D01*
D02*
G37*
G36*
X21570Y229807D02*
Y222230D01*
X29147D01*
X28567Y224396D01*
X27402Y226414D01*
X25754Y228062D01*
X23736Y229227D01*
X21570Y229807D01*
D02*
G37*
G36*
X29147Y219730D02*
X21570D01*
Y212153D01*
X23736Y212733D01*
X25754Y213898D01*
X27402Y215546D01*
X28567Y217564D01*
X29147Y219730D01*
D02*
G37*
G36*
X17760Y72327D02*
Y64750D01*
X25337D01*
X24757Y66916D01*
X23592Y68934D01*
X21944Y70582D01*
X19926Y71747D01*
X17760Y72327D01*
D02*
G37*
G36*
X25337Y62250D02*
X17760D01*
Y54673D01*
X19926Y55253D01*
X21944Y56418D01*
X23592Y58066D01*
X24757Y60084D01*
X25337Y62250D01*
D02*
G37*
G36*
X30500Y28336D02*
X27750D01*
X26053Y28113D01*
X24472Y27458D01*
X23114Y26416D01*
X22072Y25058D01*
X21417Y23477D01*
X21194Y21780D01*
Y19030D01*
X30500D01*
Y28336D01*
D02*
G37*
%LPD*%
D31*
X57150Y17780D02*
D03*
Y262890D02*
D03*
D32*
X31750D02*
D03*
Y17780D02*
D03*
D33*
X105410Y267970D02*
D03*
X20320Y220980D02*
D03*
X16510Y63500D02*
D03*
M02*
