G04*
G04 #@! TF.GenerationSoftware,Altium Limited,Altium Designer Develop,26.10.1 (6)*
G04*
G04 Layer_Color=8388736*
G04 Board_Origin=0|0*
%FSLAX44Y44*%
%MOMM*%
G71*
G04*
G04 #@! TF.SameCoordinates,F4C42F38-000B-4B33-B94C-4EB5F8B073F3*
G04*
G04*
G04 #@! TF.FilePolarity,Negative*
G04*
G01*
G75*
%ADD14R,0.7000X1.3000*%
%ADD15R,1.5500X1.3000*%
G04:AMPARAMS|DCode=16|XSize=1.1mm|YSize=2.15mm|CornerRadius=0.1mm|HoleSize=0mm|Usage=FLASHONLY|Rotation=0.000|XOffset=0mm|YOffset=0mm|HoleType=Round|Shape=RoundedRectangle|*
%AMROUNDEDRECTD16*
21,1,1.1000,1.9500,0,0,0.0*
21,1,0.9000,2.1500,0,0,0.0*
1,1,0.2000,0.4500,-0.9750*
1,1,0.2000,-0.4500,-0.9750*
1,1,0.2000,-0.4500,0.9750*
1,1,0.2000,0.4500,0.9750*
%
%ADD16ROUNDEDRECTD16*%
%ADD17R,1.3000X1.5500*%
G04:AMPARAMS|DCode=18|XSize=3.35mm|YSize=2.15mm|CornerRadius=0.1013mm|HoleSize=0mm|Usage=FLASHONLY|Rotation=0.000|XOffset=0mm|YOffset=0mm|HoleType=Round|Shape=RoundedRectangle|*
%AMROUNDEDRECTD18*
21,1,3.3500,1.9475,0,0,0.0*
21,1,3.1475,2.1500,0,0,0.0*
1,1,0.2025,1.5738,-0.9738*
1,1,0.2025,-1.5738,-0.9738*
1,1,0.2025,-1.5738,0.9738*
1,1,0.2025,1.5738,0.9738*
%
%ADD18ROUNDEDRECTD18*%
%ADD19R,1.3500X1.6500*%
%ADD20R,1.3000X1.3000*%
%ADD21C,1.7000*%
G04:AMPARAMS|DCode=22|XSize=1.7mm|YSize=1.7mm|CornerRadius=0.45mm|HoleSize=0mm|Usage=FLASHONLY|Rotation=0.000|XOffset=0mm|YOffset=0mm|HoleType=Round|Shape=RoundedRectangle|*
%AMROUNDEDRECTD22*
21,1,1.7000,0.8000,0,0,0.0*
21,1,0.8000,1.7000,0,0,0.0*
1,1,0.9000,0.4000,-0.4000*
1,1,0.9000,-0.4000,-0.4000*
1,1,0.9000,-0.4000,0.4000*
1,1,0.9000,0.4000,0.4000*
%
%ADD22ROUNDEDRECTD22*%
%ADD23C,1.3700*%
D14*
X19710Y237490D02*
D03*
X38710D02*
D03*
D15*
X114300Y243680D02*
D03*
Y223680D02*
D03*
X87630Y247650D02*
D03*
Y267650D02*
D03*
D16*
X62230Y210820D02*
D03*
X85230D02*
D03*
X39230D02*
D03*
D17*
X55720Y105410D02*
D03*
X35720D02*
D03*
D18*
X62230Y147320D02*
D03*
D19*
X36190Y44450D02*
D03*
X19690D02*
D03*
D20*
X16510Y107020D02*
D03*
Y86020D02*
D03*
D21*
X57150Y17780D02*
D03*
Y262890D02*
D03*
D22*
X31750D02*
D03*
Y17780D02*
D03*
D23*
X105410Y267970D02*
D03*
X20320Y220980D02*
D03*
X16510Y63500D02*
D03*
M02*
