G04*
G04 #@! TF.GenerationSoftware,Altium Limited,Altium Designer Develop,26.10.1 (6)*
G04*
G04 Layer_Color=65535*
G04 Board_Origin=0|0*
%FSLAX44Y44*%
%MOMM*%
G71*
G04*
G04 #@! TF.SameCoordinates,F4C42F38-000B-4B33-B94C-4EB5F8B073F3*
G04*
G04*
G04 #@! TF.FilePolarity,Positive*
G04*
G01*
G75*
%ADD10C,0.2500*%
%ADD11C,0.2000*%
%ADD12C,0.4000*%
%ADD13C,0.2540*%
G36*
X9980Y44353D02*
X11718D01*
Y43623D01*
X9980D01*
Y41866D01*
X9240D01*
Y43623D01*
X7502D01*
Y44353D01*
X9240D01*
Y46091D01*
X9980D01*
Y44353D01*
D02*
G37*
G36*
X12638Y237437D02*
X14376D01*
Y236707D01*
X12638D01*
Y234950D01*
X11898D01*
Y236707D01*
X10160D01*
Y237437D01*
X11898D01*
Y239175D01*
X12638D01*
Y237437D01*
D02*
G37*
G36*
X130961Y11308D02*
X131010D01*
X131141Y11294D01*
X131287Y11273D01*
X131440Y11239D01*
X131606Y11197D01*
X131759Y11142D01*
X131765D01*
X131779Y11135D01*
X131800Y11121D01*
X131828Y11107D01*
X131897Y11072D01*
X131987Y11010D01*
X132091Y10940D01*
X132195Y10850D01*
X132292Y10746D01*
X132383Y10628D01*
Y10622D01*
X132390Y10615D01*
X132403Y10594D01*
X132417Y10573D01*
X132452Y10504D01*
X132494Y10413D01*
X132542Y10302D01*
X132577Y10171D01*
X132612Y10032D01*
X132625Y9880D01*
X132015Y9831D01*
Y9838D01*
Y9852D01*
X132008Y9873D01*
X132001Y9907D01*
X131980Y9984D01*
X131953Y10087D01*
X131911Y10199D01*
X131849Y10309D01*
X131772Y10413D01*
X131675Y10510D01*
X131662Y10517D01*
X131627Y10545D01*
X131558Y10587D01*
X131467Y10628D01*
X131349Y10670D01*
X131211Y10712D01*
X131037Y10739D01*
X130843Y10746D01*
X130746D01*
X130705Y10739D01*
X130649Y10732D01*
X130524Y10718D01*
X130386Y10691D01*
X130247Y10656D01*
X130115Y10601D01*
X130060Y10566D01*
X130004Y10531D01*
X129990Y10524D01*
X129963Y10497D01*
X129921Y10448D01*
X129879Y10393D01*
X129831Y10316D01*
X129789Y10233D01*
X129761Y10136D01*
X129748Y10025D01*
Y10011D01*
Y9984D01*
X129755Y9935D01*
X129768Y9880D01*
X129789Y9810D01*
X129824Y9741D01*
X129866Y9671D01*
X129928Y9602D01*
X129935Y9595D01*
X129970Y9574D01*
X129997Y9554D01*
X130025Y9540D01*
X130067Y9519D01*
X130115Y9491D01*
X130178Y9470D01*
X130247Y9443D01*
X130323Y9415D01*
X130413Y9380D01*
X130510Y9352D01*
X130621Y9318D01*
X130746Y9290D01*
X130885Y9255D01*
X130892D01*
X130920Y9248D01*
X130961Y9242D01*
X131010Y9228D01*
X131072Y9214D01*
X131148Y9193D01*
X131225Y9172D01*
X131308Y9151D01*
X131488Y9103D01*
X131662Y9054D01*
X131745Y9027D01*
X131821Y8999D01*
X131890Y8978D01*
X131946Y8950D01*
X131953D01*
X131967Y8943D01*
X131987Y8929D01*
X132015Y8916D01*
X132091Y8874D01*
X132182Y8819D01*
X132286Y8742D01*
X132390Y8659D01*
X132487Y8562D01*
X132570Y8458D01*
X132577Y8444D01*
X132605Y8410D01*
X132632Y8347D01*
X132674Y8264D01*
X132709Y8167D01*
X132743Y8049D01*
X132764Y7917D01*
X132771Y7778D01*
Y7771D01*
Y7765D01*
Y7744D01*
Y7716D01*
X132757Y7640D01*
X132743Y7543D01*
X132716Y7432D01*
X132681Y7314D01*
X132625Y7189D01*
X132549Y7057D01*
Y7050D01*
X132542Y7043D01*
X132507Y7002D01*
X132459Y6939D01*
X132390Y6870D01*
X132299Y6787D01*
X132189Y6697D01*
X132064Y6614D01*
X131918Y6537D01*
X131911D01*
X131897Y6530D01*
X131876Y6523D01*
X131849Y6510D01*
X131807Y6496D01*
X131759Y6475D01*
X131648Y6447D01*
X131516Y6412D01*
X131356Y6378D01*
X131183Y6357D01*
X130996Y6350D01*
X130885D01*
X130829Y6357D01*
X130767D01*
X130698Y6364D01*
X130614Y6371D01*
X130441Y6399D01*
X130261Y6426D01*
X130080Y6475D01*
X129907Y6537D01*
X129900D01*
X129886Y6544D01*
X129866Y6558D01*
X129838Y6572D01*
X129755Y6614D01*
X129657Y6676D01*
X129547Y6759D01*
X129429Y6856D01*
X129318Y6974D01*
X129214Y7106D01*
Y7113D01*
X129200Y7127D01*
X129193Y7147D01*
X129172Y7175D01*
X129158Y7210D01*
X129137Y7251D01*
X129089Y7355D01*
X129040Y7487D01*
X128999Y7633D01*
X128971Y7799D01*
X128957Y7973D01*
X129553Y8028D01*
Y8021D01*
Y8014D01*
X129560Y7993D01*
Y7966D01*
X129574Y7903D01*
X129595Y7813D01*
X129623Y7723D01*
X129651Y7619D01*
X129699Y7522D01*
X129748Y7432D01*
X129755Y7425D01*
X129775Y7397D01*
X129810Y7348D01*
X129866Y7300D01*
X129935Y7238D01*
X130011Y7175D01*
X130115Y7113D01*
X130226Y7057D01*
X130233D01*
X130240Y7050D01*
X130261Y7043D01*
X130282Y7036D01*
X130351Y7016D01*
X130441Y6988D01*
X130552Y6960D01*
X130677Y6939D01*
X130815Y6926D01*
X130968Y6919D01*
X131031D01*
X131100Y6926D01*
X131183Y6933D01*
X131280Y6946D01*
X131391Y6960D01*
X131502Y6988D01*
X131606Y7023D01*
X131620Y7030D01*
X131655Y7043D01*
X131703Y7071D01*
X131765Y7099D01*
X131828Y7147D01*
X131897Y7196D01*
X131967Y7251D01*
X132022Y7321D01*
X132029Y7328D01*
X132043Y7355D01*
X132064Y7390D01*
X132091Y7446D01*
X132119Y7501D01*
X132140Y7570D01*
X132154Y7647D01*
X132161Y7730D01*
Y7737D01*
Y7771D01*
X132154Y7813D01*
X132147Y7869D01*
X132126Y7924D01*
X132105Y7993D01*
X132071Y8063D01*
X132022Y8125D01*
X132015Y8132D01*
X131994Y8153D01*
X131967Y8181D01*
X131918Y8222D01*
X131863Y8264D01*
X131786Y8312D01*
X131696Y8361D01*
X131592Y8403D01*
X131585Y8410D01*
X131551Y8416D01*
X131495Y8437D01*
X131460Y8444D01*
X131412Y8458D01*
X131363Y8479D01*
X131301Y8493D01*
X131232Y8514D01*
X131148Y8534D01*
X131065Y8555D01*
X130968Y8583D01*
X130857Y8611D01*
X130739Y8638D01*
X130732D01*
X130711Y8645D01*
X130677Y8652D01*
X130635Y8666D01*
X130580Y8680D01*
X130517Y8694D01*
X130379Y8735D01*
X130226Y8784D01*
X130067Y8832D01*
X129928Y8881D01*
X129866Y8909D01*
X129810Y8936D01*
X129803D01*
X129796Y8943D01*
X129755Y8971D01*
X129692Y9006D01*
X129623Y9061D01*
X129540Y9124D01*
X129456Y9200D01*
X129373Y9290D01*
X129304Y9387D01*
X129297Y9401D01*
X129276Y9436D01*
X129248Y9491D01*
X129221Y9560D01*
X129193Y9651D01*
X129165Y9755D01*
X129144Y9866D01*
X129137Y9984D01*
Y9991D01*
Y9997D01*
Y10018D01*
Y10046D01*
X129151Y10115D01*
X129165Y10205D01*
X129186Y10309D01*
X129221Y10427D01*
X129269Y10545D01*
X129339Y10663D01*
Y10670D01*
X129346Y10677D01*
X129380Y10718D01*
X129429Y10774D01*
X129491Y10843D01*
X129574Y10920D01*
X129678Y11003D01*
X129803Y11079D01*
X129942Y11149D01*
X129949D01*
X129963Y11155D01*
X129983Y11162D01*
X130011Y11176D01*
X130046Y11190D01*
X130094Y11204D01*
X130198Y11232D01*
X130330Y11259D01*
X130483Y11287D01*
X130642Y11308D01*
X130822Y11315D01*
X130913D01*
X130961Y11308D01*
D02*
G37*
G36*
X143380Y6433D02*
X142722D01*
X140211Y10199D01*
Y6433D01*
X139601D01*
Y11232D01*
X140253D01*
X142770Y7459D01*
Y11232D01*
X143380D01*
Y6433D01*
D02*
G37*
G36*
X163982D02*
X163323D01*
X161465Y11232D01*
X162158D01*
X163406Y7744D01*
Y7737D01*
X163413Y7723D01*
X163420Y7702D01*
X163434Y7674D01*
X163441Y7633D01*
X163455Y7591D01*
X163489Y7487D01*
X163531Y7369D01*
X163573Y7238D01*
X163656Y6960D01*
Y6967D01*
X163663Y6981D01*
X163670Y7002D01*
X163677Y7030D01*
X163697Y7106D01*
X163732Y7210D01*
X163767Y7328D01*
X163808Y7459D01*
X163857Y7598D01*
X163913Y7744D01*
X165216Y11232D01*
X165861D01*
X163982Y6433D01*
D02*
G37*
G36*
X128111Y8458D02*
Y8451D01*
Y8423D01*
Y8389D01*
Y8340D01*
X128104Y8278D01*
Y8208D01*
X128097Y8125D01*
X128090Y8042D01*
X128070Y7855D01*
X128042Y7661D01*
X128000Y7473D01*
X127972Y7383D01*
X127945Y7300D01*
Y7293D01*
X127938Y7279D01*
X127924Y7258D01*
X127910Y7231D01*
X127868Y7154D01*
X127806Y7057D01*
X127723Y6946D01*
X127626Y6835D01*
X127501Y6718D01*
X127348Y6614D01*
X127341D01*
X127328Y6600D01*
X127307Y6593D01*
X127272Y6572D01*
X127231Y6551D01*
X127175Y6530D01*
X127120Y6510D01*
X127050Y6482D01*
X126974Y6454D01*
X126891Y6433D01*
X126801Y6412D01*
X126697Y6392D01*
X126593Y6378D01*
X126482Y6364D01*
X126232Y6350D01*
X126170D01*
X126121Y6357D01*
X126066D01*
X125996Y6364D01*
X125920Y6371D01*
X125844Y6378D01*
X125670Y6406D01*
X125483Y6447D01*
X125303Y6503D01*
X125129Y6579D01*
X125123D01*
X125109Y6593D01*
X125088Y6607D01*
X125060Y6620D01*
X124984Y6676D01*
X124894Y6752D01*
X124790Y6849D01*
X124693Y6960D01*
X124596Y7099D01*
X124519Y7251D01*
Y7258D01*
X124512Y7272D01*
X124505Y7300D01*
X124492Y7335D01*
X124478Y7376D01*
X124464Y7432D01*
X124443Y7494D01*
X124429Y7570D01*
X124415Y7654D01*
X124395Y7744D01*
X124381Y7841D01*
X124367Y7945D01*
X124353Y8063D01*
X124346Y8188D01*
X124339Y8319D01*
Y8458D01*
Y11232D01*
X124977D01*
Y8458D01*
Y8451D01*
Y8430D01*
Y8396D01*
Y8354D01*
X124984Y8305D01*
Y8243D01*
X124991Y8111D01*
X125005Y7959D01*
X125026Y7806D01*
X125053Y7661D01*
X125067Y7598D01*
X125088Y7536D01*
X125095Y7522D01*
X125109Y7487D01*
X125143Y7439D01*
X125185Y7369D01*
X125233Y7300D01*
X125303Y7224D01*
X125386Y7147D01*
X125483Y7085D01*
X125497Y7078D01*
X125532Y7057D01*
X125594Y7036D01*
X125677Y7009D01*
X125774Y6974D01*
X125899Y6953D01*
X126031Y6933D01*
X126177Y6926D01*
X126246D01*
X126287Y6933D01*
X126350D01*
X126412Y6939D01*
X126565Y6967D01*
X126731Y7002D01*
X126891Y7057D01*
X127043Y7134D01*
X127113Y7182D01*
X127175Y7238D01*
X127182Y7244D01*
X127189Y7251D01*
X127203Y7272D01*
X127224Y7300D01*
X127244Y7342D01*
X127272Y7383D01*
X127300Y7446D01*
X127328Y7508D01*
X127355Y7584D01*
X127376Y7674D01*
X127404Y7778D01*
X127425Y7889D01*
X127445Y8014D01*
X127459Y8146D01*
X127473Y8299D01*
Y8458D01*
Y11232D01*
X128111D01*
Y8458D01*
D02*
G37*
G36*
X123292Y7959D02*
Y7952D01*
Y7931D01*
Y7903D01*
Y7862D01*
X123285Y7806D01*
Y7751D01*
X123271Y7619D01*
X123257Y7466D01*
X123230Y7307D01*
X123188Y7161D01*
X123139Y7023D01*
Y7016D01*
X123132Y7009D01*
X123112Y6967D01*
X123077Y6912D01*
X123028Y6835D01*
X122959Y6759D01*
X122883Y6676D01*
X122786Y6593D01*
X122675Y6523D01*
X122661Y6516D01*
X122619Y6496D01*
X122557Y6468D01*
X122467Y6440D01*
X122356Y6406D01*
X122231Y6378D01*
X122092Y6357D01*
X121940Y6350D01*
X121877D01*
X121836Y6357D01*
X121780Y6364D01*
X121725Y6371D01*
X121579Y6399D01*
X121427Y6440D01*
X121267Y6503D01*
X121184Y6544D01*
X121108Y6593D01*
X121038Y6648D01*
X120969Y6711D01*
X120962Y6718D01*
X120955Y6724D01*
X120941Y6752D01*
X120920Y6780D01*
X120893Y6815D01*
X120865Y6863D01*
X120837Y6919D01*
X120803Y6981D01*
X120775Y7050D01*
X120747Y7134D01*
X120719Y7217D01*
X120692Y7314D01*
X120678Y7418D01*
X120657Y7536D01*
X120650Y7654D01*
Y7785D01*
X121226Y7869D01*
Y7862D01*
Y7848D01*
Y7820D01*
X121233Y7778D01*
X121239Y7737D01*
Y7688D01*
X121260Y7570D01*
X121281Y7446D01*
X121323Y7321D01*
X121364Y7210D01*
X121392Y7161D01*
X121427Y7120D01*
X121434Y7113D01*
X121461Y7092D01*
X121503Y7057D01*
X121558Y7023D01*
X121635Y6981D01*
X121718Y6953D01*
X121822Y6926D01*
X121933Y6919D01*
X121974D01*
X122016Y6926D01*
X122078Y6933D01*
X122141Y6946D01*
X122210Y6960D01*
X122280Y6988D01*
X122349Y7023D01*
X122356Y7030D01*
X122377Y7043D01*
X122404Y7071D01*
X122446Y7099D01*
X122481Y7147D01*
X122522Y7196D01*
X122557Y7251D01*
X122585Y7321D01*
Y7328D01*
X122598Y7355D01*
X122605Y7404D01*
X122619Y7466D01*
X122633Y7550D01*
X122640Y7654D01*
X122654Y7778D01*
Y7924D01*
Y11232D01*
X123292D01*
Y7959D01*
D02*
G37*
G36*
X168413Y6433D02*
X167823D01*
Y10185D01*
X167816Y10178D01*
X167782Y10150D01*
X167740Y10108D01*
X167671Y10060D01*
X167595Y9997D01*
X167498Y9928D01*
X167386Y9852D01*
X167262Y9776D01*
X167255D01*
X167248Y9769D01*
X167206Y9741D01*
X167137Y9706D01*
X167054Y9664D01*
X166957Y9616D01*
X166853Y9567D01*
X166749Y9519D01*
X166644Y9477D01*
Y10046D01*
X166651D01*
X166665Y10060D01*
X166693Y10067D01*
X166728Y10087D01*
X166769Y10108D01*
X166818Y10136D01*
X166936Y10205D01*
X167075Y10282D01*
X167213Y10379D01*
X167359Y10490D01*
X167504Y10608D01*
X167511Y10615D01*
X167518Y10622D01*
X167539Y10642D01*
X167567Y10663D01*
X167629Y10732D01*
X167712Y10816D01*
X167796Y10913D01*
X167886Y11024D01*
X167962Y11135D01*
X168031Y11252D01*
X168413D01*
Y6433D01*
D02*
G37*
G36*
X152013Y11225D02*
X152152Y11218D01*
X152291Y11204D01*
X152429Y11183D01*
X152547Y11162D01*
X152554D01*
X152568Y11155D01*
X152589D01*
X152617Y11142D01*
X152693Y11121D01*
X152790Y11086D01*
X152901Y11037D01*
X153019Y10975D01*
X153137Y10906D01*
X153248Y10816D01*
X153255Y10809D01*
X153261Y10802D01*
X153282Y10781D01*
X153310Y10760D01*
X153379Y10691D01*
X153463Y10594D01*
X153553Y10476D01*
X153650Y10337D01*
X153740Y10178D01*
X153816Y9997D01*
Y9991D01*
X153823Y9977D01*
X153837Y9949D01*
X153844Y9907D01*
X153865Y9859D01*
X153879Y9803D01*
X153893Y9741D01*
X153913Y9664D01*
X153934Y9588D01*
X153948Y9498D01*
X153983Y9304D01*
X154003Y9089D01*
X154010Y8853D01*
Y8846D01*
Y8832D01*
Y8798D01*
Y8763D01*
X154003Y8715D01*
Y8659D01*
X153997Y8527D01*
X153976Y8375D01*
X153955Y8215D01*
X153920Y8049D01*
X153879Y7883D01*
Y7875D01*
X153872Y7862D01*
X153865Y7841D01*
X153858Y7813D01*
X153830Y7737D01*
X153788Y7640D01*
X153747Y7529D01*
X153692Y7418D01*
X153622Y7300D01*
X153553Y7189D01*
X153546Y7175D01*
X153518Y7140D01*
X153476Y7092D01*
X153421Y7030D01*
X153359Y6960D01*
X153282Y6891D01*
X153206Y6815D01*
X153116Y6752D01*
X153102Y6745D01*
X153074Y6724D01*
X153026Y6697D01*
X152956Y6662D01*
X152873Y6620D01*
X152776Y6586D01*
X152665Y6544D01*
X152540Y6510D01*
X152527D01*
X152506Y6503D01*
X152485Y6496D01*
X152416Y6489D01*
X152318Y6475D01*
X152207Y6461D01*
X152076Y6447D01*
X151930Y6440D01*
X151771Y6433D01*
X150044D01*
Y11232D01*
X151889D01*
X152013Y11225D01*
D02*
G37*
G36*
X146924Y7002D02*
X149288D01*
Y6433D01*
X146286D01*
Y11232D01*
X146924D01*
Y7002D01*
D02*
G37*
G36*
X138485Y6433D02*
X137847D01*
Y11232D01*
X138485D01*
Y6433D01*
D02*
G37*
G36*
X137084Y10663D02*
X135503D01*
Y6433D01*
X134865D01*
Y10663D01*
X133284D01*
Y11232D01*
X137084D01*
Y10663D01*
D02*
G37*
G36*
X157096Y11308D02*
X157159D01*
X157221Y11301D01*
X157304Y11287D01*
X157387Y11273D01*
X157568Y11239D01*
X157776Y11183D01*
X157977Y11100D01*
X158081Y11051D01*
X158185Y10996D01*
X158192Y10989D01*
X158206Y10982D01*
X158233Y10961D01*
X158275Y10940D01*
X158317Y10906D01*
X158372Y10864D01*
X158490Y10767D01*
X158615Y10642D01*
X158753Y10490D01*
X158885Y10309D01*
X158996Y10108D01*
Y10101D01*
X159010Y10081D01*
X159024Y10053D01*
X159038Y10011D01*
X159066Y9956D01*
X159086Y9893D01*
X159114Y9817D01*
X159142Y9734D01*
X159163Y9644D01*
X159190Y9547D01*
X159218Y9436D01*
X159239Y9325D01*
X159267Y9082D01*
X159280Y8819D01*
Y8812D01*
Y8784D01*
Y8749D01*
X159274Y8694D01*
Y8631D01*
X159267Y8555D01*
X159253Y8472D01*
X159246Y8382D01*
X159211Y8181D01*
X159156Y7959D01*
X159079Y7737D01*
X159038Y7626D01*
X158982Y7515D01*
Y7508D01*
X158968Y7487D01*
X158954Y7459D01*
X158927Y7418D01*
X158899Y7369D01*
X158864Y7321D01*
X158767Y7189D01*
X158649Y7050D01*
X158511Y6905D01*
X158344Y6766D01*
X158150Y6641D01*
X158143D01*
X158129Y6627D01*
X158095Y6614D01*
X158053Y6593D01*
X158005Y6572D01*
X157949Y6551D01*
X157880Y6523D01*
X157803Y6496D01*
X157720Y6468D01*
X157630Y6440D01*
X157429Y6399D01*
X157214Y6364D01*
X156985Y6350D01*
X156916D01*
X156874Y6357D01*
X156812D01*
X156742Y6371D01*
X156666Y6378D01*
X156576Y6392D01*
X156389Y6433D01*
X156188Y6489D01*
X155980Y6572D01*
X155876Y6620D01*
X155772Y6676D01*
X155765Y6683D01*
X155751Y6690D01*
X155723Y6711D01*
X155682Y6738D01*
X155640Y6766D01*
X155591Y6808D01*
X155474Y6912D01*
X155342Y7036D01*
X155203Y7189D01*
X155078Y7362D01*
X154960Y7563D01*
Y7570D01*
X154947Y7591D01*
X154933Y7619D01*
X154919Y7661D01*
X154898Y7716D01*
X154877Y7778D01*
X154850Y7848D01*
X154829Y7924D01*
X154801Y8014D01*
X154773Y8104D01*
X154732Y8312D01*
X154704Y8527D01*
X154690Y8763D01*
Y8770D01*
Y8777D01*
Y8819D01*
X154697Y8881D01*
Y8964D01*
X154711Y9061D01*
X154725Y9179D01*
X154746Y9311D01*
X154773Y9450D01*
X154801Y9595D01*
X154843Y9748D01*
X154898Y9900D01*
X154960Y10060D01*
X155030Y10212D01*
X155120Y10365D01*
X155217Y10504D01*
X155328Y10635D01*
X155335Y10642D01*
X155356Y10663D01*
X155397Y10698D01*
X155446Y10739D01*
X155508Y10795D01*
X155584Y10850D01*
X155675Y10913D01*
X155779Y10975D01*
X155890Y11037D01*
X156014Y11100D01*
X156153Y11155D01*
X156299Y11211D01*
X156458Y11252D01*
X156625Y11287D01*
X156798Y11308D01*
X156985Y11315D01*
X157048D01*
X157096Y11308D01*
D02*
G37*
%LPC*%
G36*
X151791Y10663D02*
X150682D01*
Y7002D01*
X151819D01*
X151868Y7009D01*
X151972Y7016D01*
X152090Y7023D01*
X152214Y7036D01*
X152339Y7057D01*
X152443Y7085D01*
X152457Y7092D01*
X152492Y7099D01*
X152540Y7120D01*
X152603Y7147D01*
X152672Y7189D01*
X152741Y7231D01*
X152811Y7279D01*
X152880Y7335D01*
X152887Y7348D01*
X152915Y7376D01*
X152956Y7425D01*
X153005Y7494D01*
X153061Y7584D01*
X153123Y7688D01*
X153178Y7806D01*
X153227Y7938D01*
Y7945D01*
X153234Y7959D01*
X153241Y7980D01*
X153248Y8007D01*
X153255Y8042D01*
X153268Y8091D01*
X153282Y8139D01*
X153296Y8195D01*
X153317Y8333D01*
X153338Y8493D01*
X153352Y8673D01*
X153359Y8867D01*
Y8874D01*
Y8902D01*
Y8936D01*
X153352Y8992D01*
Y9054D01*
X153345Y9124D01*
X153338Y9207D01*
X153331Y9290D01*
X153296Y9477D01*
X153255Y9671D01*
X153192Y9852D01*
X153151Y9942D01*
X153109Y10018D01*
Y10025D01*
X153095Y10039D01*
X153081Y10060D01*
X153067Y10087D01*
X153012Y10157D01*
X152943Y10240D01*
X152852Y10330D01*
X152748Y10420D01*
X152631Y10497D01*
X152506Y10559D01*
X152492Y10566D01*
X152457Y10573D01*
X152395Y10594D01*
X152305Y10615D01*
X152194Y10628D01*
X152055Y10649D01*
X151972Y10656D01*
X151882D01*
X151791Y10663D01*
D02*
G37*
G36*
X156985Y10767D02*
X156923D01*
X156874Y10760D01*
X156812Y10753D01*
X156749Y10739D01*
X156673Y10726D01*
X156590Y10712D01*
X156410Y10656D01*
X156313Y10615D01*
X156215Y10573D01*
X156111Y10517D01*
X156014Y10455D01*
X155917Y10386D01*
X155827Y10302D01*
X155820Y10296D01*
X155806Y10282D01*
X155786Y10254D01*
X155751Y10212D01*
X155716Y10164D01*
X155675Y10101D01*
X155633Y10025D01*
X155584Y9935D01*
X155543Y9838D01*
X155494Y9720D01*
X155453Y9595D01*
X155418Y9456D01*
X155383Y9304D01*
X155363Y9131D01*
X155349Y8950D01*
X155342Y8756D01*
Y8749D01*
Y8722D01*
Y8673D01*
X155349Y8611D01*
X155356Y8541D01*
X155370Y8458D01*
X155383Y8361D01*
X155397Y8264D01*
X155453Y8042D01*
X155494Y7931D01*
X155536Y7813D01*
X155591Y7702D01*
X155654Y7591D01*
X155723Y7487D01*
X155806Y7390D01*
X155813Y7383D01*
X155827Y7369D01*
X155855Y7342D01*
X155890Y7314D01*
X155938Y7272D01*
X155994Y7231D01*
X156056Y7189D01*
X156125Y7140D01*
X156209Y7092D01*
X156299Y7050D01*
X156396Y7009D01*
X156500Y6967D01*
X156611Y6939D01*
X156722Y6912D01*
X156847Y6898D01*
X156978Y6891D01*
X157013D01*
X157048Y6898D01*
X157096D01*
X157159Y6905D01*
X157228Y6919D01*
X157311Y6933D01*
X157394Y6953D01*
X157491Y6981D01*
X157582Y7016D01*
X157686Y7050D01*
X157783Y7099D01*
X157880Y7161D01*
X157977Y7224D01*
X158074Y7300D01*
X158164Y7390D01*
X158171Y7397D01*
X158185Y7411D01*
X158206Y7446D01*
X158240Y7487D01*
X158275Y7536D01*
X158310Y7598D01*
X158351Y7674D01*
X158400Y7758D01*
X158441Y7855D01*
X158483Y7966D01*
X158518Y8084D01*
X158559Y8208D01*
X158587Y8347D01*
X158608Y8500D01*
X158622Y8659D01*
X158629Y8826D01*
Y8832D01*
Y8853D01*
Y8881D01*
Y8923D01*
X158622Y8971D01*
Y9033D01*
X158615Y9096D01*
X158601Y9172D01*
X158580Y9332D01*
X158545Y9498D01*
X158497Y9678D01*
X158427Y9845D01*
Y9852D01*
X158421Y9866D01*
X158407Y9886D01*
X158393Y9914D01*
X158344Y9997D01*
X158282Y10094D01*
X158199Y10205D01*
X158095Y10316D01*
X157977Y10427D01*
X157845Y10524D01*
X157838D01*
X157831Y10538D01*
X157810Y10545D01*
X157776Y10566D01*
X157741Y10580D01*
X157699Y10601D01*
X157595Y10649D01*
X157471Y10691D01*
X157325Y10732D01*
X157159Y10760D01*
X156985Y10767D01*
D02*
G37*
%LPD*%
D10*
X14300Y17780D02*
G03*
X14300Y17780I-1250J0D01*
G01*
Y262890D02*
G03*
X14300Y262890I-1250J0D01*
G01*
X96980Y210820D02*
G03*
X96980Y210820I-1250J0D01*
G01*
D11*
X26960Y244740D02*
X31460D01*
X26960Y230240D02*
X31460D01*
X10260Y96010D02*
Y97030D01*
X22760Y96010D02*
Y97030D01*
X17550Y4330D02*
X71350D01*
X17550D02*
Y31230D01*
X71350D01*
Y4330D02*
Y31230D01*
X120550Y232680D02*
Y234680D01*
X108050Y232680D02*
Y234680D01*
X17550Y249440D02*
X71350D01*
X17550D02*
Y276340D01*
X71350D01*
Y249440D02*
Y276340D01*
X81380Y256650D02*
Y258650D01*
X93880Y256650D02*
Y258650D01*
X28730Y197570D02*
X95730D01*
X28730Y160570D02*
X95730D01*
Y197570D01*
X28730Y160570D02*
Y197570D01*
X44720Y99160D02*
X46720D01*
X44720Y111660D02*
X46720D01*
D12*
X10160Y74930D02*
X22860D01*
D13*
X58420Y241298D02*
X55881Y243838D01*
X50802D01*
X48263Y241298D01*
Y231142D01*
X50802Y228603D01*
X55881D01*
X58420Y231142D01*
X63498Y228603D02*
X68577D01*
X66038D01*
Y243838D01*
X63498Y241298D01*
X30483Y91438D02*
Y76203D01*
X38101D01*
X40640Y78742D01*
Y88898D01*
X38101Y91438D01*
X30483D01*
X45718Y76203D02*
X50797D01*
X48258D01*
Y91438D01*
X45718Y88898D01*
X86361Y24128D02*
X81283D01*
X83822D01*
Y11432D01*
X81283Y8892D01*
X78743D01*
X76204Y11432D01*
X101596Y8892D02*
X91439D01*
X101596Y19049D01*
Y21588D01*
X99057Y24128D01*
X93978D01*
X91439Y21588D01*
X127003Y228603D02*
Y243838D01*
X134621D01*
X137160Y241298D01*
Y236220D01*
X134621Y233681D01*
X127003D01*
X132082D02*
X137160Y228603D01*
X142238D02*
X147317D01*
X144778D01*
Y243838D01*
X142238Y241298D01*
X58420Y299718D02*
X53342D01*
X55881D01*
Y287022D01*
X53342Y284482D01*
X50802D01*
X48263Y287022D01*
X63498Y284482D02*
X68577D01*
X66038D01*
Y299718D01*
X63498Y297178D01*
X115574Y259083D02*
Y274317D01*
X123192D01*
X125731Y271778D01*
Y266700D01*
X123192Y264161D01*
X115574D01*
X120653D02*
X125731Y259083D01*
X140966D02*
X130809D01*
X140966Y269239D01*
Y271778D01*
X138427Y274317D01*
X133348D01*
X130809Y271778D01*
X102873Y184147D02*
Y171452D01*
X105413Y168913D01*
X110491D01*
X113030Y171452D01*
Y184147D01*
X118108Y168913D02*
X123187D01*
X120648D01*
Y184147D01*
X118108Y181608D01*
X68584Y97793D02*
Y113027D01*
X76202D01*
X78741Y110488D01*
Y105410D01*
X76202Y102871D01*
X68584D01*
X73663D02*
X78741Y97793D01*
X83819Y110488D02*
X86358Y113027D01*
X91437D01*
X93976Y110488D01*
Y107949D01*
X91437Y105410D01*
X88897D01*
X91437D01*
X93976Y102871D01*
Y100332D01*
X91437Y97793D01*
X86358D01*
X83819Y100332D01*
X57151Y50798D02*
X54612Y53337D01*
X49533D01*
X46994Y50798D01*
Y40642D01*
X49533Y38103D01*
X54612D01*
X57151Y40642D01*
X72386Y38103D02*
X62229D01*
X72386Y48259D01*
Y50798D01*
X69847Y53337D01*
X64768D01*
X62229Y50798D01*
M02*
